<?xml version="1.0" encoding="UTF-8" standalone="no"?>
<svg
   version="1.0"
   width="312.000000pt"
   height="208.000000pt"
   viewBox="0 0 312.000000 208.000000"
   preserveAspectRatio="xMidYMid meet"
   id="svg2"
   sodipodi:docname="fish.svg"
   inkscape:version="1.3.1 (9b9bdc1480, 2023-11-25, custom)"
   xmlns:inkscape="http://www.inkscape.org/namespaces/inkscape"
   xmlns:sodipodi="http://sodipodi.sourceforge.net/DTD/sodipodi-0.dtd"
   xmlns="http://www.w3.org/2000/svg"
   xmlns:svg="http://www.w3.org/2000/svg">
  <defs
     id="defs2" />
  <sodipodi:namedview
     id="namedview2"
     pagecolor="#ffffff"
     bordercolor="#000000"
     borderopacity="0.25"
     inkscape:showpageshadow="2"
     inkscape:pageopacity="0.0"
     inkscape:pagecheckerboard="0"
     inkscape:deskcolor="#d1d1d1"
     inkscape:document-units="pt"
     inkscape:zoom="1.2850306"
     inkscape:cx="207.38806"
     inkscape:cy="138.5181"
     inkscape:window-width="1366"
     inkscape:window-height="700"
     inkscape:window-x="1366"
     inkscape:window-y="0"
     inkscape:window-maximized="1"
     inkscape:current-layer="svg2" />
  <g
     transform="translate(0.000000,208.000000) scale(0.100000,-0.100000)"
     fill="#000000"
     stroke="none"
     id="g2"
     style="fill:#3d9eff;fill-opacity:1">
    <path
       d="M1418 1260 c-145 -18 -253 -64 -390 -168 l-88 -67 32 -25 c148 -118 222 -159 345 -191 178 -46 360 -30 524 47 l80 38 25 -30 c13 -16 32 -41 41 -56 20 -32 28 -35 37 -12 7 18 -17 80 -41 107 -16 17 -15 20 14 49 18 18 36 27 43 23 6 -4 31 -33 54 -64 37 -51 44 -57 64 -48 12 6 22 14 22 18 0 4 -23 38 -50 74 -27 36 -50 68 -50 70 0 2 23 34 50 70 27 36 50 70 50 74 0 4 -10 12 -22 18 -20 9 -27 3 -64 -48 -23 -31 -48 -60 -54 -64 -7 -4 -24 5 -40 20 l-29 27 26 47 c20 35 25 54 19 75 l-7 28 -40 -56 c-22 -31 -44 -56 -48 -56 -5 0 -42 16 -84 35 -125 58 -279 82 -419 65z m291 -75 c30 -9 79 -28 109 -41 55 -24 55 -24 36 -45 -34 -38 -49 -40 -96 -14 -94 52 -194 77 -336 82 -73 3 -131 7 -129 10 3 2 33 10 68 18 83 19 273 13 348 -10z m-121 -96 c41 -11 92 -29 115 -40 38 -20 40 -22 22 -35 -53 -39 -231 -84 -328 -84 -106 1 -279 45 -333 84 -18 14 -16 16 37 40 151 67 322 79 487 35z m374 -36 l28 -27 -27 -28 c-34 -35 -43 -35 -77 1 l-27 28 33 27 c18 14 35 26 37 26 3 0 18 -12 33 -27z m-120 -92 l33 -29 -68 -31 c-102 -46 -211 -65 -332 -58 -55 3 -120 12 -145 20 -45 13 -44 14 90 19 144 6 249 31 336 83 21 13 42 24 46 24 4 1 22 -12 40 -28z"
       id="path1"
       style="fill:#3d9eff;fill-opacity:1" />
    <path
       d="M1210 1040 c0 -13 7 -20 20 -20 13 0 20 7 20 20 0 13 -7 20 -20 20 -13 0 -20 -7 -20 -20z"
       id="path2"
       style="fill:#3d9eff;fill-opacity:1" />
  </g>
</svg>
