<svg version="1.0" xmlns="http://www.w3.org/2000/svg"
 width="100.000000pt" height="100.000000pt" viewBox="0 0 874.000000 980.000000"
 preserveAspectRatio="xMidYMid meet">
  
  <defs>
    <linearGradient id="bottom-gradient" x1="0" y1="1" x2="0" y2="0">
      <stop offset="0%" stop-color="#FFF" stop-opacity="0"/>
      <stop offset="100%" stop-color="#FFF" stop-opacity="1"/>
    </linearGradient>
  </defs>

<g transform="translate(0.000000,980.000000) scale(0.100000,-0.100000)">

<path d="M1117 9264 c-26 -68 -85 -259 -189 -608 l-53 -179 -100 -29 c-175
-51 -566 -168 -670 -200 -98 -31 -99 -32 -70 -43 17 -7 213 -65 436 -130 l406
-119 88 -300 c102 -348 164 -548 174 -558 4 -5 65 187 136 424 l130 433 260
77 c408 122 595 180 595 188 0 4 -127 44 -282 90 -357 105 -549 167 -564 183
-15 15 -79 212 -179 552 -42 143 -80 266 -85 274 -5 9 -16 -9 -33 -55z" stroke="#d53dff" stroke-width="150" stroke-linecap="round" fill="none"/>
<path d="M3641 8284 c-41 -127 -175 -576 -308 -1033 l-68 -234 -571 -167
c-573 -168 -792 -236 -808 -250 -11 -11 201 -76 1099 -339 189 -55 244 -75
261 -94 26 -31 64 -146 213 -647 152 -512 220 -725 231 -714 10 11 51 142 180
584 122 417 218 726 235 761 16 29 130 68 730 244 486 143 657 197 648 206
-12 11 -285 95 -808 249 -264 78 -495 147 -514 153 -54 19 -71 67 -321 906
-77 261 -145 481 -149 490 -7 10 -21 -23 -50 -115z" stroke="#d53dff" stroke-width="150" stroke-linecap="round" fill="none"/>
<path d="M7351 7637 c-39 -8 -69 -33 -295 -252 -138 -134 -555 -548 -926 -919
l-675 -676 328 -328 328 -327 803 805 c781 784 1012 1024 1043 1084 26 50 13
126 -33 193 -52 77 -337 363 -394 395 -51 29 -115 38 -179 25z" stroke="#fff" stroke-width="150" stroke-linecap="round" fill="none"/>
<path d="M4352 4681 c-1494 -1477 -3835 -3836 -3984 -4014 -42 -51 -48 -63
-48 -105 0 -79 52 -153 236 -337 226 -227 258 -244 381 -213 43 10 91 56 622
579 317 312 1397 1389 2401 2393 l1825 1826 -175 176 c-225 226 -466 454 -480
454 -6 0 -356 -341 -778 -759z" stroke="#fff" stroke-width="150" stroke-linecap="round" fill="none"/>
<path d="M7595 5134 c-9 -22 -50 -156 -92 -299 -75 -261 -138 -457 -154 -485
-4 -8 -12 -20 -16 -27 -5 -7 -146 -53 -313 -103 -393 -117 -524 -160 -513
-170 11 -10 128 -47 343 -110 96 -28 245 -73 332 -100 l156 -50 32 -88 c17
-48 77 -239 133 -425 56 -186 106 -339 112 -338 5 0 40 105 77 233 37 128 95
318 129 421 60 184 62 189 95 203 31 13 269 87 634 196 74 23 146 46 159 53
24 12 23 12 -20 28 -24 9 -192 62 -374 117 -444 134 -432 130 -443 155 -6 12
-33 100 -62 196 -28 96 -81 273 -117 394 -36 121 -69 224 -73 229 -5 5 -16 -9
-25 -30z" stroke="#d53dff" stroke-width="150" stroke-linecap="round" fill="none"/>
</g>

</svg>
