<?xml version="1.0" encoding="UTF-8" standalone="no"?>
<svg
   width="54"
   height="58"
   viewBox="0 0 54 58"
   fill="none"
   version="1.1"
   id="svg12"
   sodipodi:docname="icon-app-design.svg"
   inkscape:version="1.3.1 (9b9bdc1480, 2023-11-25, custom)"
   xmlns:inkscape="http://www.inkscape.org/namespaces/inkscape"
   xmlns:sodipodi="http://sodipodi.sourceforge.net/DTD/sodipodi-0.dtd"
   xmlns="http://www.w3.org/2000/svg"
   xmlns:svg="http://www.w3.org/2000/svg">
  <sodipodi:namedview
     id="namedview12"
     pagecolor="#ffffff"
     bordercolor="#000000"
     borderopacity="0.25"
     inkscape:showpageshadow="2"
     inkscape:pageopacity="0.0"
     inkscape:pagecheckerboard="0"
     inkscape:deskcolor="#d1d1d1"
     showgrid="false"
     inkscape:zoom="9.5"
     inkscape:cx="26.947368"
     inkscape:cy="3.7368421"
     inkscape:window-width="1366"
     inkscape:window-height="740"
     inkscape:window-x="0"
     inkscape:window-y="0"
     inkscape:window-maximized="1"
     inkscape:current-layer="svg12" />
  <path
     d="M39 1H13C10.2386 1 8 3.23858 8 6V52C8 54.7614 10.2386 57 13 57H39C41.7614 57 44 54.7614 44 52V6C44 3.23858 41.7614 1 39 1Z"
     stroke="url(#paint0_linear_2452_76)"
     stroke-width="1.5"
     stroke-linecap="round"
     stroke-linejoin="round"
     id="path1" />
  <path
     d="M26 53C27.1046 53 28 52.1046 28 51C28 49.8954 27.1046 49 26 49C24.8954 49 24 49.8954 24 51C24 52.1046 24.8954 53 26 53Z"
     fill="#d53dff"
     id="path2"
     style="fill:#3d9eff;fill-opacity:1" />
  <path
     d="M24.6546 12.3401H2C0.89543 12.3401 0 13.2355 0 14.3401V25.0001C0 26.1047 0.89543 27.0001 2 27.0001H24.6546C25.7592 27.0001 26.6546 26.1047 26.6546 25.0001V14.3401C26.6546 13.2355 25.7592 12.3401 24.6546 12.3401Z"
     fill="url(#paint1_linear_2452_76)"
     id="path3" />
  <path
     d="M4.66406 17.1885H21.6564"
     stroke="#110E1B"
     stroke-width="1.5"
     stroke-linecap="round"
     id="path4" />
  <path
     d="M4.66406 21.7842H15.3259"
     stroke="#110E1B"
     stroke-width="1.5"
     stroke-linecap="round"
     id="path5" />
  <path
     d="M24 5H29"
     stroke="url(#paint2_linear_2452_76)"
     stroke-width="1.2"
     stroke-linecap="round"
     stroke-linejoin="round"
     id="path6" />
  <path
     d="M46 32H33C31.8954 32 31 32.8954 31 34V41C31 42.1046 31.8954 43 33 43H46C47.1046 43 48 42.1046 48 41V34C48 32.8954 47.1046 32 46 32Z"
     fill="#110E1B"
     stroke="#d53dff"
     stroke-width="1.5"
     stroke-linecap="round"
     id="path7"
     style="fill:#0e151b;fill-opacity:1;stroke:#3d9eff;stroke-opacity:1" />
  <defs
     id="defs12">
    <linearGradient
       id="paint0_linear_2452_76"
       x1="3.23529"
       y1="-13.4667"
       x2="24.6708"
       y2="63.0313"
       gradientUnits="userSpaceOnUse">
      <stop
         stop-color="white"
         id="stop7" />
      <stop
         offset="1"
         stop-color="white"
         stop-opacity="0"
         id="stop8" />
    </linearGradient>
    <linearGradient
       id="paint1_linear_2452_76"
       x1="13.7869"
       y1="15.9706"
       x2="-1.75438"
       y2="18.7034"
       gradientUnits="userSpaceOnUse">
      <stop
         stop-color="#d53dff"
         id="stop9"
         offset="0"
         style="stop-color:#3d9eff;stop-opacity:1;" />
      <stop
         offset="1"
         stop-color="#d53dff"
         stop-opacity="0"
         id="stop10"
         style="stop-color:#3d9eff;stop-opacity:0;" />
    </linearGradient>
    <linearGradient
       id="paint2_linear_2452_76"
       x1="-nan"
       y1="-nan"
       x2="-nan"
       y2="-nan"
       gradientUnits="userSpaceOnUse">
      <stop
         stop-color="white"
         id="stop11" />
      <stop
         offset="1"
         stop-color="white"
         stop-opacity="0"
         id="stop12" />
    </linearGradient>
  </defs>
</svg>
