<?xml version="1.0" encoding="UTF-8" standalone="no"?>
<svg
   width="54"
   height="47"
   viewBox="0 0 54 47"
   fill="none"
   version="1.1"
   id="svg11"
   sodipodi:docname="icon-front.svg"
   xml:space="preserve"
   inkscape:version="1.3.1 (9b9bdc1480, 2023-11-25, custom)"
   xmlns:inkscape="http://www.inkscape.org/namespaces/inkscape"
   xmlns:sodipodi="http://sodipodi.sourceforge.net/DTD/sodipodi-0.dtd"
   xmlns:xlink="http://www.w3.org/1999/xlink"
   xmlns="http://www.w3.org/2000/svg"
   xmlns:svg="http://www.w3.org/2000/svg"><sodipodi:namedview
     id="namedview11"
     pagecolor="#ffffff"
     bordercolor="#000000"
     borderopacity="0.25"
     inkscape:showpageshadow="2"
     inkscape:pageopacity="0.0"
     inkscape:pagecheckerboard="0"
     inkscape:deskcolor="#d1d1d1"
     showgrid="false"
     inkscape:zoom="8.2896985"
     inkscape:cx="33.294335"
     inkscape:cy="25.99612"
     inkscape:window-width="1366"
     inkscape:window-height="740"
     inkscape:window-x="0"
     inkscape:window-y="0"
     inkscape:window-maximized="1"
     inkscape:current-layer="svg11" /><path
     d="M1 42.6696V1.9163C1 1.41024 1.41024 1 1.9163 1H24.0393C24.8349 1 25.598 1.31607 26.1606 1.87868L28.5266 4.24467C29.0892 4.80728 29.8523 5.12335 30.6479 5.12335H50C51.6569 5.12335 53 6.46649 53 8.12335V42.6696C53 44.3265 51.6569 45.6696 50 45.6696H4C2.34315 45.6696 1 44.3265 1 42.6696Z"
     stroke="url(#paint0_linear_2173_250)"
     stroke-width="1.5"
     stroke-linecap="round"
     stroke-linejoin="round"
     id="path1" /><defs
     id="defs11"><linearGradient
       id="paint0_linear_2173_250"
       x1="-22.6749"
       y1="12.1674"
       x2="20.338"
       y2="74.8868"
       gradientUnits="userSpaceOnUse"><stop
         stop-color="white"
         id="stop4" /><stop
         offset="1"
         stop-color="white"
         stop-opacity="0"
         id="stop5" /></linearGradient><linearGradient
       id="paint1_linear_2173_250"
       x1="17.9746"
       y1="19.7613"
       x2="11.7208"
       y2="31.3754"
       gradientUnits="userSpaceOnUse"
       gradientTransform="translate(-9.1341261,-3.3174607)"><stop
         stop-color="#d53dff"
         id="stop6"
         offset="0"
         style="stop-color:#3d9eff;stop-opacity:1;" /><stop
         offset="1"
         stop-color="#d53dff"
         stop-opacity="0"
         id="stop7"
         style="stop-color:#3d9eff;stop-opacity:0;" /></linearGradient><linearGradient
       id="paint2_linear_2173_250"
       x1="38.9694"
       y1="21.1014"
       x2="32.2689"
       y2="33.1622"
       gradientUnits="userSpaceOnUse"
       gradientTransform="translate(10.998321,-2.9273522)"><stop
         stop-color="#d53dff"
         id="stop8"
         offset="0"
         style="stop-color:#3d9eff;stop-opacity:1;" /><stop
         offset="1"
         stop-color="#d53dff"
         stop-opacity="0"
         id="stop9"
         style="stop-color:#3d9eff;stop-opacity:0;" /></linearGradient><linearGradient
       id="paint3_linear_2173_250"
       x1="36.7358"
       y1="15.2943"
       x2="37.6158"
       y2="33.4949"
       gradientUnits="userSpaceOnUse"><stop
         stop-color="#d53dff"
         id="stop10" /><stop
         offset="1"
         stop-color="#d53dff"
         stop-opacity="0"
         id="stop11" /></linearGradient><linearGradient
       inkscape:collect="always"
       xlink:href="#paint1_linear_2173_250"
       id="linearGradient39"
       gradientUnits="userSpaceOnUse"
       gradientTransform="matrix(0.79795734,0,0,0.88448179,-0.46050374,0.31294138)"
       x1="17.9746"
       y1="19.761299"
       x2="11.7208"
       y2="31.375401" /><linearGradient
       inkscape:collect="always"
       xlink:href="#linearGradient46"
       id="linearGradient47"
       x1="939.18134"
       y1="1026.8368"
       x2="2180.5"
       y2="1026.8368"
       gradientUnits="userSpaceOnUse" /><linearGradient
       id="linearGradient46"
       inkscape:collect="always"><stop
         style="stop-color:#ffffff;stop-opacity:1;"
         offset="0"
         id="stop46" /><stop
         style="stop-color:#ffffff;stop-opacity:0;"
         offset="1"
         id="stop47" /></linearGradient><linearGradient
       inkscape:collect="always"
       xlink:href="#linearGradient54"
       id="linearGradient55"
       x1="1526.3369"
       y1="1026.8368"
       x2="1527.9987"
       y2="891.10181"
       gradientUnits="userSpaceOnUse" /><linearGradient
       id="linearGradient54"
       inkscape:collect="always"><stop
         style="stop-color:#3d9eff;stop-opacity:1;"
         offset="0"
         id="stop54" /><stop
         style="stop-color:#3d9eff;stop-opacity:0;"
         offset="1"
         id="stop55" /></linearGradient><linearGradient
       id="linearGradient2"
       inkscape:collect="always"
       x1="1209.5"
       y1="1019.5"
       x2="1250.5"
       y2="1019.5"
       gradientUnits="userSpaceOnUse"><stop
         style="stop-color:#ffffff;stop-opacity:1;"
         offset="0"
         id="stop1" /><stop
         style="stop-color:#ffffff;stop-opacity:0;"
         offset="1"
         id="stop2" /></linearGradient><linearGradient
       id="paint2_linear_2173_250-7"
       x1="38.969398"
       y1="21.1014"
       x2="32.268902"
       y2="33.162201"
       gradientUnits="userSpaceOnUse"
       gradientTransform="matrix(0.79795734,0,0,0.88448179,14.574681,0.12548888)"><stop
         stop-color="#d53dff"
         id="stop8-9"
         offset="0"
         style="stop-color:#3d9eff;stop-opacity:1;" /><stop
         offset="1"
         stop-color="#d53dff"
         stop-opacity="0"
         id="stop9-2"
         style="stop-color:#3d9eff;stop-opacity:0;" /></linearGradient><linearGradient
       inkscape:collect="always"
       xlink:href="#linearGradient46"
       id="linearGradient5"
       gradientUnits="userSpaceOnUse"
       x1="939.18134"
       y1="1026.8368"
       x2="2180.5"
       y2="1026.8368" /></defs><path
     d="M 14.229811,29.968467 8.563277,23.687496 14.229811,17.406437"
     stroke="url(#paint1_linear_2173_250)"
     stroke-width="1.26016"
     id="path2"
     style="stroke:url(#linearGradient39)" /><path
     d="m 42.060402,29.781013 5.666534,-6.28097 -5.666534,-6.281059"
     stroke="url(#paint2_linear_2173_250)"
     stroke-width="1.26016"
     id="path3"
     style="stroke:url(#paint2_linear_2173_250-7)" /><g
     transform="matrix(0.02290406,0,0,-0.02554975,-8.7266839,49.735424)"
     fill="#000000"
     id="g2"
     style="fill:#3d9eff;fill-opacity:1;stroke:url(#linearGradient47)"><path
       d="m 1418,1260 c -145,-18 -253,-64 -390,-168 l -88,-67 32,-25 c 148,-118 222,-159 345,-191 178,-46 360,-30 524,47 l 80,38 25,-30 c 13,-16 32,-41 41,-56 20,-32 28,-35 37,-12 7,18 -17,80 -41,107 -16,17 -15,20 14,49 18,18 36,27 43,23 6,-4 31,-33 54,-64 37,-51 44,-57 64,-48 12,6 22,14 22,18 0,4 -23,38 -50,74 -27,36 -50,68 -50,70 0,2 23,34 50,70 27,36 50,70 50,74 0,4 -10,12 -22,18 -20,9 -27,3 -64,-48 -23,-31 -48,-60 -54,-64 -7,-4 -24,5 -40,20 l -29,27 26,47 c 20,35 25,54 19,75 l -7,28 -40,-56 c -22,-31 -44,-56 -48,-56 -5,0 -42,16 -84,35 -125,58 -279,82 -419,65 z m 291,-75 c 30,-9 79,-28 109,-41 55,-24 55,-24 36,-45 -34,-38 -49,-40 -96,-14 -94,52 -194,77 -336,82 -73,3 -131,7 -129,10 3,2 33,10 68,18 83,19 273,13 348,-10 z m -121,-96 c 41,-11 92,-29 115,-40 38,-20 40,-22 22,-35 -53,-39 -231,-84 -328,-84 -106,1 -279,45 -333,84 -18,14 -16,16 37,40 151,67 322,79 487,35 z m 374,-36 28,-27 -27,-28 c -34,-35 -43,-35 -77,1 l -27,28 33,27 c 18,14 35,26 37,26 3,0 18,-12 33,-27 z m -120,-92 33,-29 -68,-31 c -102,-46 -211,-65 -332,-58 -55,3 -120,12 -145,20 -45,13 -44,14 90,19 144,6 249,31 336,83 21,13 42,24 46,24 4,1 22,-12 40,-28 z"
       id="path1-3"
       style="fill:url(#linearGradient55);fill-opacity:1;stroke:url(#linearGradient5)" /><path
       d="m 1210,1040 c 0,-13 7,-20 20,-20 13,0 20,7 20,20 0,13 -7,20 -20,20 -13,0 -20,-7 -20,-20 z"
       id="path2-6"
       style="fill:#3d9eff;fill-opacity:1;stroke:url(#linearGradient2)" /></g></svg>
