<?xml version="1.0" encoding="UTF-8" standalone="no"?>
<svg
   width="32"
   height="32"
   viewBox="0 0 32 32"
   fill="none"
   version="1.1"
   id="svg3"
   sodipodi:docname="instagram.svg"
   inkscape:version="1.3.1 (9b9bdc1480, 2023-11-25, custom)"
   xmlns:inkscape="http://www.inkscape.org/namespaces/inkscape"
   xmlns:sodipodi="http://sodipodi.sourceforge.net/DTD/sodipodi-0.dtd"
   xmlns="http://www.w3.org/2000/svg"
   xmlns:svg="http://www.w3.org/2000/svg">
  <defs
     id="defs3" />
  <sodipodi:namedview
     id="namedview3"
     pagecolor="#ffffff"
     bordercolor="#000000"
     borderopacity="0.25"
     inkscape:showpageshadow="2"
     inkscape:pageopacity="0.0"
     inkscape:pagecheckerboard="0"
     inkscape:deskcolor="#d1d1d1"
     showgrid="false"
     inkscape:zoom="17.21875"
     inkscape:cx="16"
     inkscape:cy="25.292196"
     inkscape:window-width="1366"
     inkscape:window-height="740"
     inkscape:window-x="0"
     inkscape:window-y="0"
     inkscape:window-maximized="1"
     inkscape:current-layer="svg3" />
  <path
     d="M16 21C18.7614 21 21 18.7614 21 16C21 13.2386 18.7614 11 16 11C13.2386 11 11 13.2386 11 16C11 18.7614 13.2386 21 16 21Z"
     stroke="#d53dff"
     stroke-width="1.5"
     stroke-miterlimit="10"
     id="path1"
     style="stroke:#3d9eff;stroke-opacity:1" />
  <path
     d="M21.5 4.5H10.5C7.18629 4.5 4.5 7.18629 4.5 10.5V21.5C4.5 24.8137 7.18629 27.5 10.5 27.5H21.5C24.8137 27.5 27.5 24.8137 27.5 21.5V10.5C27.5 7.18629 24.8137 4.5 21.5 4.5Z"
     stroke="#d53dff"
     stroke-width="1.5"
     stroke-linecap="round"
     stroke-linejoin="round"
     id="path2"
     style="stroke:#3d9eff;stroke-opacity:1" />
  <path
     d="M22.5 11C23.3284 11 24 10.3284 24 9.5C24 8.67157 23.3284 8 22.5 8C21.6716 8 21 8.67157 21 9.5C21 10.3284 21.6716 11 22.5 11Z"
     fill="#d53dff"
     id="path3"
     style="fill:#3d9eff;fill-opacity:1" />
</svg>
