<?xml version="1.0" encoding="utf-8"?>
<!-- Generator: Adobe Illustrator 24.0.1, SVG Export Plug-In . SVG Version: 6.00 Build 0)  -->
<svg version="1.1" id="Layer_1" xmlns="http://www.w3.org/2000/svg" xmlns:xlink="http://www.w3.org/1999/xlink" x="0px" y="0px"
	 viewBox="0 0 71.6 122.9" style="enable-background:new 0 0 71.6 122.9;" xml:space="preserve">
<style type="text/css">
	.st0{fill-rule:evenodd;clip-rule:evenodd;}
</style>
<g>
	<path class="st0" d="M19.5,0H52c2.5,0,4.7,1,6.3,2.6c1.6,1.6,2.6,3.9,2.6,6.3v68.5c0,2.5-1,4.7-2.6,6.3c-1.6,1.6-3.9,2.6-6.3,2.6
		H19.5c-2.5,0-4.7-1-6.3-2.6c-1.6-1.6-2.6-3.9-2.6-6.3V8.9c0-2.5,1-4.7,2.6-6.3C14.9,1,17.1,0,19.5,0L19.5,0z M40.8,53.1h0.1
		c0.9,0,1.7,0.8,1.7,1.7v10.6h1.1V61c0-0.8,0.7-1.5,1.5-1.5h0.1c0.9,0,1.7,0.8,1.7,1.7v4.5l0.1,0h1.2v-3.4c0-0.8,0.7-1.5,1.5-1.5
		h0.1c0.9,0,1.7,0.8,1.7,1.7v3.1h0l1.2,0v-2.2c0-0.8,0.7-1.5,1.5-1.5h0.1c0.9,0,1.7,0.8,1.7,1.7v4.6c0,0,0,0.1,0,0.2l0.1,0
		c0,1.3,0,2.9-0.2,4.5h2.6V13.9H13.1v58.7h24.9L32.6,64c-0.3-0.8-0.3-1.3,0-1.7c1.5-0.9,3.8,1.1,6.5,3.9l0.1,0V54.6
		C39.2,53.8,39.9,53.1,40.8,53.1L40.8,53.1L40.8,53.1z M41.8,48.7c0,0.5-0.4,0.8-0.8,0.8c-0.5,0-0.8-0.4-0.8-0.8v-3.3
		c0-0.5,0.4-0.8,0.8-0.8c0.5,0,0.8,0.4,0.8,0.8V48.7L41.8,48.7L41.8,48.7z M34.4,55.4c0.5,0,0.8,0.4,0.8,0.8c0,0.5-0.4,0.8-0.8,0.8
		h-3.3c-0.5,0-0.8-0.4-0.8-0.8c0-0.5,0.4-0.8,0.8-0.8H34.4L34.4,55.4z M36.7,50.5c0.3,0.3,0.3,0.8,0,1.2c-0.3,0.3-0.8,0.3-1.2,0
		l-2.3-2.3c-0.3-0.3-0.3-0.8,0-1.2c0.3-0.3,0.8-0.3,1.2,0L36.7,50.5L36.7,50.5z M47.4,57c-0.5,0-0.8-0.4-0.8-0.8
		c0-0.5,0.4-0.8,0.8-0.8h3.3c0.5,0,0.8,0.4,0.8,0.8c0,0.5-0.4,0.8-0.8,0.8H47.4L47.4,57z M46.2,51.5c-0.3,0.3-0.8,0.3-1.2,0
		s-0.3-0.8,0-1.2l2.3-2.3c0.3-0.3,0.8-0.3,1.2,0c0.3,0.3,0.3,0.8,0,1.2L46.2,51.5L46.2,51.5z M18.8,46h5c1.3,0,2.3,1,2.3,2.3v5
		c0,1.3-1,2.3-2.3,2.3h-5c-1.3,0-2.3-1-2.3-2.3v-5C16.6,47.1,17.6,46,18.8,46L18.8,46z M47.7,31.7h5c1.3,0,2.3,1,2.3,2.3v5
		c0,1.3-1,2.3-2.3,2.3h-5c-1.3,0-2.3-1-2.3-2.3v-5C45.4,32.7,46.4,31.7,47.7,31.7L47.7,31.7z M33.3,31.7h5c1.3,0,2.3,1,2.3,2.3v5
		c0,1.3-1,2.3-2.3,2.3h-5c-1.3,0-2.3-1-2.3-2.3v-5C31,32.7,32,31.7,33.3,31.7L33.3,31.7z M18.8,31.7h5c1.3,0,2.3,1,2.3,2.3v5
		c0,1.3-1,2.3-2.3,2.3h-5c-1.3,0-2.3-1-2.3-2.3v-5C16.6,32.7,17.6,31.7,18.8,31.7L18.8,31.7z M47.7,17.4h5c1.3,0,2.3,1,2.3,2.3v5
		c0,1.3-1,2.3-2.3,2.3h-5c-1.3,0-2.3-1-2.3-2.3v-5C45.4,18.4,46.4,17.4,47.7,17.4L47.7,17.4z M33.3,17.4h5c1.3,0,2.3,1,2.3,2.3v5
		c0,1.3-1,2.3-2.3,2.3h-5c-1.3,0-2.3-1-2.3-2.3v-5C31,18.4,32,17.4,33.3,17.4L33.3,17.4z M18.8,17.4h5c1.3,0,2.3,1,2.3,2.3v5
		c0,1.3-1,2.3-2.3,2.3h-5c-1.3,0-2.3-1-2.3-2.3v-5C16.6,18.4,17.6,17.4,18.8,17.4L18.8,17.4z M35.7,75.4c2,0,3.7,1.6,3.7,3.7
		c0,2-1.6,3.7-3.7,3.7c-2,0-3.7-1.6-3.7-3.7C32.1,77,33.7,75.4,35.7,75.4L35.7,75.4z" fill="/>
</g>
</svg>
